,
Brought to you by  http://www.scenetime.com/signup.php
 
 Hottest scene tracker on the net !!!   
 
No fake torrents from scenebalance 
shame on those who comment fake before downloading my torrents

    seed back for speed


 



...................................NFO:.................................................General
Complete name                    : Julien Donkey Boy.mp4
Format                           : MPEG-4
Format profile                   : Base Media / Version 2
Codec ID                         : mp42
File size                        : 699 MiB
Duration                         : 1h 39mn
Overall bit rate                 : 979 Kbps
Encoded date                     : UTC 2006-11-11 01:11:14
Tagged date                      : UTC 2006-11-11 04:42:45

Video
ID                               : 1
Format                           : MPEG-4 Visual
Format settings, BVOP            : No
Format settings, QPel            : No
Format settings, GMC             : No warppoints
Format settings, Matrix          : Default (H.263)
Codec ID                         : 20
Duration                         : 1h 39mn
Bit rate mode                    : Variable
Bit rate                         : 848 Kbps
Maximum bit rate                 : 1 706 Kbps
Width                            : 704 pixels
Height                           : 384 pixels
Display aspect ratio             : 16:9
Frame rate mode                  : Variable
Frame rate                       : 23.976 fps
Minimum frame rate               : 23.967 fps
Maximum frame rate               : 23.993 fps
Color space                      : YUV
Chroma subsampling               : 4:2:0
Bit depth                        : 8 bits
Scan type                        : Progressive
Compression mode                 : Lossy
Bits/(Pixel*Frame)               : 0.131
Stream size                      : 605 MiB (87%)
Language                         : English
Encoded date                     : UTC 2006-11-11 01:11:14
Tagged date                      : UTC 2006-11-11 04:42:45

Audio
ID                               : 2
Format                           : AAC
Format/Info                      : Advanced Audio Codec
Format version                   : Version 4
Format profile                   : LC
Codec ID                         : 40
Duration                         : 1h 39mn
Bit rate mode                    : Variable
Bit rate                         : 128 Kbps
Maximum bit rate                 : 213 Kbps
Channel(s)                       : 2 channels
Channel positions                : Front: L R
Sampling rate                    : 44.1 KHz
Compression mode                 : Lossy
Stream size                      : 91.4 MiB (13%)
Language                         : English
Encoded date                     : UTC 2006-11-11 01:11:15
Tagged date                      : UTC 2006-11-11 04:42:45